<svg width="21" height="22" viewBox="0 0 21 22" fill="none" xmlns="http://www.w3.org/2000/svg">
<path fill-rule="evenodd" clip-rule="evenodd" d="M0 5.05736L14.6667 0.0183746V14.1275L0 19.1665V5.05736Z" fill="#5C5D7D"/>
<path d="M9.37036 3.25928H5.29629V11H9.37036V3.25928Z" fill="#7C7D9F"/>
<path d="M9.37036 9.77783H-8.58307e-06V13.0371H9.37036V9.77783Z" fill="white"/>
<path d="M9.37036 5.70361H-8.58307e-06V9.77769H9.37036V5.70361Z" fill="#080930" fill-opacity="0.4"/>
<path fill-rule="evenodd" clip-rule="evenodd" d="M4.07407 7.50219L18.7407 2.4632V16.5724L4.07407 21.6113V7.50219Z" fill="#73749F"/>
<path d="M18.7408 5.70361H9.37038V13.0369H18.7408V5.70361Z" fill="#8D8EBB"/>
<path d="M12.6296 13.0371H18.7407V16.2964H12.6296V13.0371Z" fill="#ABADEE"/>
<path d="M4.07407 9.77783H12.6296V13.0371H4.07407V9.77783Z" fill="#414265"/>
<path d="M12.8744 11.921L20.2769 9.37085L20.275 18.1454L12.8746 20.6966L12.8744 11.921Z" fill="#3A3B5E"/>
<path d="M15.2676 18.4564L16.9147 17.8935C18.1225 17.4808 18.8225 16.2869 18.8205 15.0298C18.8185 13.7663 18.1154 13.039 16.9075 13.4517L15.2604 14.0146L15.2676 18.4564ZM16.1142 17.3737L16.1096 14.5178L16.9088 14.2447C17.6103 14.005 17.9713 14.5589 17.9726 15.3196C17.9738 16.0803 17.6149 16.8609 16.9134 17.1006L16.1142 17.3737Z" fill="white"/>
</svg>
