<svg width="50" height="54" viewBox="0 0 50 54" fill="none" xmlns="http://www.w3.org/2000/svg">
<g id="OpenBayes BayesGear Logo">
<path id="Rectangle Copy 4.1" fill-rule="evenodd" clip-rule="evenodd" d="M0 12.414L36 0.0455452V34.6771L0 47.0455V12.414Z" fill="#9F30E2"/>
<path id="Rectangle 2.3" d="M36 8H13V27H36V8Z" fill="#D38BFF"/>
<path id="Rectangle 2.2" d="M23 14H0V33H23V14Z" fill="#8A1BCD"/>
<path id="Rectangle 2.6" d="M23 14H0V19H23V14Z" fill="#6401A0"/>
<path id="Rectangle Copy 4" fill-rule="evenodd" clip-rule="evenodd" d="M10 18.414L46 6.04555V40.6771L10 53.0455V18.414Z" fill="#BD50FF"/>
<path id="Rectangle 2.1" d="M46 14H23V33H46V14Z" fill="#A035E1"/>
<path id="Rectangle 2" d="M10 22H41V29H10V22Z" fill="white"/>
<path id="Rectangle 2.4" d="M10 26H23V46H10V26Z" fill="#FFA4FB"/>
<path id="Rectangle 2.5" d="M10 38H30V46H10V38Z" fill="#9824DE"/>
<g id="Group">
<path id="Rectangle 3" d="M31.6009 29.26L49.7706 23.0006L49.7659 44.538L31.6013 50.8L31.6009 29.26Z" fill="#6401A0"/>
<path id="G" d="M41.7942 43.2881C44.759 42.2749 46.8074 39.7225 46.8009 35.6875L41.605 37.463L41.6079 39.2511L44.5278 38.2533C44.513 38.3534 44.4982 38.4534 44.4683 38.5428C44.2007 39.7742 43.1387 40.8496 41.791 41.3101C39.9942 41.9241 38.5989 40.691 38.5957 38.7447C38.5926 36.7984 39.9825 34.661 41.7793 34.047C42.6777 33.74 43.5019 33.8699 44.087 34.335L45.5971 32.4415C44.697 31.6883 43.3333 31.4735 41.776 32.0057C38.8112 33.0188 36.5094 36.3545 36.5144 39.4559C36.5194 42.5416 38.8295 44.3012 41.7942 43.2881Z" fill="white"/>
</g>
</g>
</svg>
